<?xml version="1.0" encoding="UTF-8"?>
<!DOCTYPE svg PUBLIC "-//W3C//DTD SVG 1.1//EN" "http://www.w3.org/Graphics/SVG/1.1/DTD/svg11.dtd">
<!-- Creator: CorelDRAW X7 -->
<svg xmlns="http://www.w3.org/2000/svg" xml:space="preserve" width="47mm" height="11.5mm" version="1.1" style="shape-rendering:geometricPrecision; text-rendering:geometricPrecision; image-rendering:optimizeQuality; fill-rule:evenodd; clip-rule:evenodd"
viewBox="0 0 4700 1150"
 xmlns:xlink="http://www.w3.org/1999/xlink">
 <defs>
  <style type="text/css">
   <![CDATA[
    .fil5 {fill:#FEFEFE;fill-rule:nonzero}
    .fil3 {fill:url(#id0);fill-rule:nonzero}
    .fil6 {fill:url(#id1);fill-rule:nonzero}
    .fil7 {fill:url(#id2);fill-rule:nonzero}
    .fil4 {fill:url(#id3);fill-rule:nonzero}
    .fil0 {fill:url(#id4);fill-rule:nonzero}
    .fil1 {fill:url(#id5);fill-rule:nonzero}
    .fil2 {fill:url(#id6);fill-rule:nonzero}
   ]]>
  </style>
  <linearGradient id="id0" gradientUnits="userSpaceOnUse" x1="666.61" y1="864.48" x2="690.42" y2="864.48">
   <stop offset="0" style="stop-opacity:1; stop-color:#FFCD46"/>
   <stop offset="1" style="stop-opacity:1; stop-color:#FD3460"/>
  </linearGradient>
  <linearGradient id="id1" gradientUnits="userSpaceOnUse" x1="3413.95" y1="950.62" x2="3291.86" y2="111.38">
   <stop offset="0" style="stop-opacity:1; stop-color:#393185"/>
   <stop offset="0.639216" style="stop-opacity:1; stop-color:#1D68B4"/>
   <stop offset="1" style="stop-opacity:1; stop-color:#00A0E3"/>
  </linearGradient>
  <linearGradient id="id2" gradientUnits="userSpaceOnUse" x1="586.86" y1="387.23" x2="1454.49" y2="875.29">
   <stop offset="0" style="stop-opacity:1; stop-color:#393185"/>
   <stop offset="1" style="stop-opacity:1; stop-color:#00A0E3"/>
  </linearGradient>
  <linearGradient id="id3" gradientUnits="userSpaceOnUse" xlink:href="#id2" x1="842.68" y1="769.66" x2="494.14" y2="951.15">
  </linearGradient>
  <linearGradient id="id4" gradientUnits="userSpaceOnUse" xlink:href="#id2" x1="640.83" y1="411.18" x2="863.83" y2="846.03">
  </linearGradient>
  <linearGradient id="id5" gradientUnits="userSpaceOnUse" xlink:href="#id1" x1="1468.36" y1="947.69" x2="1403.24" y2="500.12">
  </linearGradient>
  <linearGradient id="id6" gradientUnits="userSpaceOnUse" xlink:href="#id2" x1="1526.53" y1="268.36" x2="955.17" y2="565.88">
  </linearGradient>
 </defs>
 <g id="Layer_x0020_1">
  <metadata id="CorelCorpID_0Corel-Layer"/>
  <g id="_378427264">
   <path class="fil0" d="M907 549l-153 0c-45,1 -78,-16 -79,-48 0,-6 2,-13 4,-20 9,-34 42,-60 80,-68 0,0 -7,-12 -7,-12 -247,-42 -301,94 -320,163 -10,37 -37,164 118,165l153 0c52,0 79,16 79,48 0,6 -2,13 -4,20 -10,39 -39,62 -88,67 76,-6 313,-34 391,-178 0,-91 -51,-137 -174,-137z"/>
   <path class="fil1" d="M1154 591l-32 122c0,0 0,0 0,0 -2,7 -5,14 -7,22l-69 259c59,-2 246,-61 353,-89 0,0 -301,102 -359,111l-1 2c-2,8 5,17 13,17l199 0c72,0 135,-49 154,-118l49 -183c1,-6 7,-10 13,-10l202 0c72,0 135,-49 154,-118l9 -35c2,-9 -4,-17 -13,-17l-300 0c-8,0 -15,-8 -13,-17l19 -68 3 -11 3 -13c0,0 0,0 0,0l9 -32c0,0 -230,-4 -386,178z"/>
   <path class="fil2" d="M860 243c-142,58 -263,129 -354,206 105,-41 270,-36 285,-36l410 0 -47 178c156,-182 386,-178 386,-178l296 0c55,0 104,-37 118,-91l21 -79 -1115 0z"/>
   <path class="fil3" d="M667 865c8,0 16,0 23,-1 -15,1 -23,1 -23,1z"/>
   <path class="fil4" d="M690 864c-7,1 -15,1 -23,1l-198 0c-93,0 -176,56 -212,140 -6,14 5,30 20,30l489 0c148,0 252,-74 291,-222l12 -43c8,-31 12,-59 12,-84 -78,144 -315,172 -391,178z"/>
   <path class="fil5" d="M1992 338c0,0 0,0 0,0 38,207 -268,468 -703,592 -451,129 -871,63 -936,-147 -66,-211 246,-486 697,-615 61,-17 122,-31 182,-42 -100,13 -204,35 -310,65 -529,149 -909,458 -848,689 61,232 540,298 1069,148 530,-150 910,-458 849,-690z"/>
   <path class="fil6" d="M2191 314c-25,0 -49,-4 -71,-12 -22,-8 -42,-19 -59,-35l43 -51c27,23 57,34 89,34 11,0 18,-2 24,-5 5,-4 8,-8 8,-14l0 -1c0,-3 -1,-6 -2,-8 -1,-2 -4,-4 -7,-6 -4,-2 -9,-4 -15,-6 -5,-2 -13,-4 -23,-7 -14,-3 -28,-7 -41,-11 -12,-4 -23,-9 -33,-15 -9,-7 -16,-15 -22,-24 -5,-10 -8,-22 -8,-36l0 -1c0,-13 3,-25 7,-35 5,-11 12,-21 22,-28 9,-8 20,-14 34,-19 13,-4 28,-6 44,-6 24,0 45,3 63,9 19,6 36,16 51,28l-38 54c-13,-9 -26,-16 -39,-20 -14,-5 -26,-7 -39,-7 -9,0 -16,1 -21,5 -4,3 -6,7 -6,12l0 1c0,3 0,6 2,9 1,2 4,4 7,6 4,2 9,4 15,6 6,2 14,4 23,6 16,3 30,7 43,12 13,5 24,10 33,17 9,6 15,14 20,24 5,9 7,20 7,33l0 1c0,14 -2,27 -8,38 -5,11 -13,20 -22,28 -10,7 -22,13 -36,17 -13,5 -29,7 -45,7zm311 -114l-31 -78 -31 78 62 0zm-67 -169l74 0 117 278 -82 0 -20 -50 -106 0 -20 50 -81 0 118 -278zm220 2l77 0 0 276 -77 0 0 -276zm-573 361l221 0 0 67 -144 0 0 47 130 0 0 64 -130 0 0 99 -77 0 0 -277zm257 0l77 0 0 277 -77 0 0 -277zm128 0l71 0 114 146 0 -146 76 0 0 277 -67 0 -119 -152 0 152 -75 0 0 -277zm451 282c-22,0 -42,-3 -60,-10 -18,-7 -34,-17 -48,-30 -13,-12 -24,-28 -31,-45 -8,-18 -12,-37 -12,-58l0 -1c0,-20 4,-38 11,-56 8,-17 18,-33 31,-46 13,-13 29,-23 47,-30 19,-8 38,-11 60,-11 24,0 45,3 63,10 18,7 34,17 49,30l-45 54c-10,-8 -20,-15 -31,-19 -10,-5 -22,-7 -36,-7 -10,0 -19,2 -28,6 -8,4 -16,9 -22,16 -6,7 -11,15 -15,24 -4,9 -6,19 -6,30l0 1c0,11 2,21 6,30 4,10 9,18 16,25 6,6 14,12 23,15 9,4 20,6 31,6 18,0 32,-4 44,-11l0 -34 -55 0 0 -56 128 0 0 124c-15,13 -33,23 -53,31 -20,8 -42,12 -67,12zm289 -149c13,0 24,-3 31,-9 7,-6 10,-14 10,-24l0 -1c0,-11 -3,-19 -11,-24 -7,-6 -17,-8 -30,-8l-50 0 0 66 50 0zm-127 -133l131 0c21,0 39,3 54,8 15,5 27,13 36,22 16,16 24,37 24,65l0 0c0,22 -5,39 -15,53 -10,14 -24,25 -42,32l66 97 -88 0 -56 -84 0 0 -33 0 0 84 -77 0 0 -277zm423 213c11,0 21,-2 29,-6 9,-4 16,-9 23,-16 6,-7 10,-14 14,-23 3,-9 5,-19 5,-29l0 -1c0,-10 -2,-19 -5,-28 -4,-9 -9,-17 -15,-24 -6,-7 -14,-12 -22,-16 -9,-4 -19,-6 -29,-6 -11,0 -20,2 -29,6 -9,4 -16,9 -22,16 -6,6 -11,14 -14,23 -4,9 -5,19 -5,29l0 0c0,10 1,20 5,29 3,9 8,17 14,23 6,7 14,13 23,17 8,4 18,6 28,6zm0 69c-21,0 -41,-4 -59,-11 -18,-8 -34,-18 -47,-31 -13,-13 -24,-28 -31,-45 -8,-18 -12,-36 -12,-56l0 -1c0,-19 4,-38 12,-55 7,-18 18,-33 31,-46 14,-13 29,-24 47,-31 19,-8 38,-11 60,-11 21,0 41,3 59,11 18,7 34,18 47,31 13,12 23,28 31,45 7,17 11,36 11,56l0 0c0,20 -4,39 -11,56 -8,18 -18,33 -32,46 -13,13 -29,23 -47,31 -18,7 -38,11 -59,11zm170 -282l81 0 48 160 54 -161 66 0 53 161 48 -160 79 0 -92 278 -67 0 -55 -159 -56 159 -66 0 -93 -278zm527 67l-83 0 0 -67 243 0 0 67 -83 0 0 210 -77 0 0 -210zm193 -67l77 0 0 104 98 0 0 -104 77 0 0 277 -77 0 0 -105 -98 0 0 105 -77 0 0 -277zm-2198 499c14,0 24,-3 32,-9 8,-7 12,-16 12,-27l0 -1c0,-11 -4,-21 -12,-27 -8,-6 -18,-9 -32,-9l-36 0 0 73 36 0zm-113 -137l118 0c18,0 34,2 48,6 14,5 26,11 36,19 10,9 18,19 23,31 6,12 8,26 8,41l0 1c0,16 -3,30 -9,43 -5,12 -14,23 -24,31 -11,8 -23,15 -38,19 -15,4 -30,6 -47,6l-38 0 0 79 -77 0 0 -276zm244 0l85 0 63 175 63 -175 84 0 -112 278 -71 0 -112 -278zm389 67l-83 0 0 -67 243 0 0 67 -83 0 0 209 -77 0 0 -209zm302 -67l77 0 0 209 134 0 0 67 -211 0 0 -276zm311 67l-83 0 0 -67 242 0 0 67 -82 0 0 209 -77 0 0 -209zm301 141c23,0 41,-6 55,-18 14,-12 21,-29 21,-52l0 0c0,-22 -7,-40 -21,-52 -14,-12 -32,-18 -55,-18l-31 0 0 140 31 0zm-108 -208l107 0c24,0 46,3 66,10 19,7 35,16 49,28 13,12 23,27 30,43 7,17 11,36 11,56l0 0c0,20 -4,39 -11,56 -7,17 -18,31 -31,44 -13,12 -30,22 -49,29 -20,7 -42,10 -67,10l-105 0 0 -276z"/>
   <path class="fil7" d="M1980 352c0,0 0,0 -1,0 39,207 -267,468 -702,592 -451,129 -871,63 -936,-147 -66,-211 246,-486 697,-615 61,-17 122,-31 181,-42 -99,13 -203,35 -309,65 -529,149 -909,458 -848,689 61,232 540,298 1069,148 530,-150 910,-458 849,-690z"/>
  </g>
 </g>
</svg>
